<?xml version="1.0" standalone="yes"?>
<svg xmlns="http://www.w3.org/2000/svg" width="16" height="16">
<path style="fill:#fbfbf9; stroke:none;" d="M0 0L0 3L6 3L1 11C5.69337 10.2191 6.38987 7.39954 7 3L10 4L9 7C13.6257 6.31805 15.6227 4.77837 16 0L0 0z"/>
<path style="fill:#999965; stroke:none;" d="M0 3L1 4L0 3z"/>
<path style="fill:#777733; stroke:none;" d="M1 3L2 4L1 3z"/>
<path style="fill:#5a5a08; stroke:none;" d="M0 9L1 9L1 5L3 6L2 4L4 6C5.48552 2.08321 0.220357 4.5236 0 9z"/>
<path style="fill:#c1c1a2; stroke:none;" d="M5 3L6 4L5 3M7 3L8 4L7 3z"/>
<path style="fill:#5a5a08; stroke:none;" d="M8 3L6 13L8 11L9 11L16 13L16 12L15 5L14 5L12 12L8 3z"/>
<path style="fill:#c1c1a2; stroke:none;" d="M2.66667 4.33333L3.33333 4.66667L2.66667 4.33333z"/>
<path style="fill:#999965; stroke:none;" d="M5 4L6 5L5 4z"/>
<path style="fill:#777733; stroke:none;" d="M7 4L8 5L7 4z"/>
<path style="fill:#c1c1a2; stroke:none;" d="M9 4L10 5L9 4z"/>
<path style="fill:#777733; stroke:none;" d="M1 5L2 6L1 5M3 5L4 6L3 5z"/>
<path style="fill:#c1c1a2; stroke:none;" d="M5 5L6 6L5 5z"/>
<path style="fill:#999965; stroke:none;" d="M15.3333 5.66667L15.6667 6.33333L15.3333 5.66667M1 6L2 7L1 6z"/>
<path style="fill:#fbfbf9; stroke:none;" d="M2 6L3 7L2 6z"/>
<path style="fill:#c1c1a2; stroke:none;" d="M3 6L2 9L3 6M6 6L7 7L6 6z"/>
<path style="fill:#999965; stroke:none;" d="M8.33333 6.66667L8.66667 7.33333L8.33333 6.66667z"/>
<path style="fill:#c1c1a2; stroke:none;" d="M10 6L11 7L10 6z"/>
<path style="fill:#999965; stroke:none;" d="M13 6L14 7L13 6z"/>
<path style="fill:#777733; stroke:none;" d="M2 7L3 8L2 7z"/>
<path style="fill:#999965; stroke:none;" d="M6 7L7 8L6 7z"/>
<path style="fill:#5a5a08; stroke:none;" d="M9 7L11 10L9 7z"/>
<path style="fill:#777733; stroke:none;" d="M11 7L12 8L11 7z"/>
<path style="fill:#999965; stroke:none;" d="M12 7L13 8L12 7z"/>
<path style="fill:#777733; stroke:none;" d="M15 7L14 10L15 10L15 7z"/>
<path style="fill:#999965; stroke:none;" d="M1 8L2 9L1 8z"/>
<path style="fill:#777733; stroke:none;" d="M6 8L7 9L6 8M8 8L9 9L8 8z"/>
<path style="fill:#c1c1a2; stroke:none;" d="M9 8L8 10L9 8z"/>
<path style="fill:#fbfbf9; stroke:none;" d="M12 8L10 10L10 11L12 8M15 8L15 11L16 11L15 8z"/>
<path style="fill:#777733; stroke:none;" d="M0.333333 9.66667L0.666667 10.3333L0.333333 9.66667z"/>
<path style="fill:#999965; stroke:none;" d="M9 9L10 10L9 9z"/>
<path style="fill:#c1c1a2; stroke:none;" d="M11 9L12 10L11 9z"/>
<path style="fill:#999965; stroke:none;" d="M5 10L6 11L5 10z"/>
<path style="fill:#777733; stroke:none;" d="M9 10L10 11L9 10z"/>
<path style="fill:#c1c1a2; stroke:none;" d="M12 10L13 11L12 10z"/>
<path style="fill:#999965; stroke:none;" d="M14 10L15 11L14 10z"/>
<path style="fill:#5a5a08; stroke:none;" d="M0 11L4 13L4 12L0 11z"/>
<path style="fill:#999965; stroke:none;" d="M1 11L2 12L1 11z"/>
<path style="fill:#c1c1a2; stroke:none;" d="M2.66667 11.3333L3.33333 11.6667L2.66667 11.3333z"/>
<path style="fill:#777733; stroke:none;" d="M4.33333 11.6667L4.66667 12.3333L4.33333 11.6667M7.33333 11.6667L7.66667 12.3333L7.33333 11.6667z"/>
<path style="fill:#999965; stroke:none;" d="M8 11L9 12L8 11z"/>
<path style="fill:#c1c1a2; stroke:none;" d="M10 11L11 12L10 11z"/>
<path style="fill:#999965; stroke:none;" d="M11 11L12 12L11 11z"/>
<path style="fill:#777733; stroke:none;" d="M14 11L15 12L14 11z"/>
<path style="fill:#c1c1a2; stroke:none;" d="M15 11L16 12L15 11M5 12L7 14L5 12z"/>
<path style="fill:#fbfbf9; stroke:none;" d="M8 12L0 13C1.03155 17.8139 14.9684 17.8139 16 13L8 12z"/>
<path style="fill:#c1c1a2; stroke:none;" d="M12 12L13 13L12 12z"/>
<path style="fill:#777733; stroke:none;" d="M13 12L14 13L13 12z"/>
<path style="fill:#c1c1a2; stroke:none;" d="M1.66667 13.3333L2.33333 13.6667L1.66667 13.3333M10 13L11 14L10 13M14 13L15 14L14 13z"/>
</svg>
